<svg width="810.0" height="1176.0" viewBox="0 0 810.0 1176.0" xmlns="http://www.w3.org/2000/svg">
<style>/* font and background color specifications */
svg {
    font-family: SFMono-Regular,Consolas,Liberation Mono,Menlo,monospace;
    font-size: 14px;
    font-kerning: normal;
    text-rendering: optimizeLegibility;
    fill: #24292e;
}

/* default key styling */
rect {
    fill: #f6f8fa;
    stroke: #d6d8da;
    stroke-width: 1;
}

/* color accent for held keys */
.held {
    fill: #fdd;
}

/* color accent for combo boxes */
.combo {
    fill: #cdf;
}

/* color accent for ghost (optional) keys */
.ghost {
    fill: #ddd;
}

text {
    text-anchor: middle;
    dominant-baseline: middle;
}

/* styling for layer labels */
.label {
    font-weight: bold;
    text-anchor: start;
    stroke: white;
    stroke-width: 2;
    paint-order: stroke;
}

/* styling for combo box and hold-tap hold label text */
.small {
    font-size: 11px;
}

/* styling for hold-tap hold label text in combo box */
.smaller {
    font-size: 8px;
}

/* styling for combo dendrons */
path {
    stroke-width: 1;
    stroke: gray;
    fill: none;
}
</style>
<text x="30.0" y="28.0" class="label">default:</text>
<rect rx="6.0" ry="6.0" x="32.0" y="58.0" width="56.0" height="52.0"/>
<text x="60.0" y="84.0">TAB</text>
<rect rx="6.0" ry="6.0" x="92.0" y="58.0" width="56.0" height="52.0"/>
<text x="120.0" y="84.0">Q</text>
<rect rx="6.0" ry="6.0" x="152.0" y="58.0" width="56.0" height="52.0"/>
<text x="180.0" y="84.0">W</text>
<rect rx="6.0" ry="6.0" x="212.0" y="58.0" width="56.0" height="52.0"/>
<text x="240.0" y="84.0">E</text>
<rect rx="6.0" ry="6.0" x="272.0" y="58.0" width="56.0" height="52.0"/>
<text x="300.0" y="84.0">R</text>
<rect rx="6.0" ry="6.0" x="332.0" y="58.0" width="56.0" height="52.0"/>
<text x="360.0" y="84.0">T</text>
<rect rx="6.0" ry="6.0" x="422.0" y="58.0" width="56.0" height="52.0"/>
<text x="450.0" y="84.0">Y</text>
<rect rx="6.0" ry="6.0" x="482.0" y="58.0" width="56.0" height="52.0"/>
<text x="510.0" y="84.0">U</text>
<rect rx="6.0" ry="6.0" x="542.0" y="58.0" width="56.0" height="52.0"/>
<text x="570.0" y="84.0">I</text>
<rect rx="6.0" ry="6.0" x="602.0" y="58.0" width="56.0" height="52.0"/>
<text x="630.0" y="84.0">O</text>
<rect rx="6.0" ry="6.0" x="662.0" y="58.0" width="56.0" height="52.0"/>
<text x="690.0" y="84.0">P</text>
<rect rx="6.0" ry="6.0" x="722.0" y="58.0" width="56.0" height="52.0"/>
<text x="750.0" y="84.0">&amp;bspdel</text>
<rect rx="6.0" ry="6.0" x="32.0" y="114.0" width="56.0" height="52.0"/>
<text x="60.0" y="140.0">LCTRL</text>
<rect rx="6.0" ry="6.0" x="92.0" y="114.0" width="56.0" height="52.0"/>
<text x="120.0" y="140.0">A</text>
<rect rx="6.0" ry="6.0" x="152.0" y="114.0" width="56.0" height="52.0"/>
<text x="180.0" y="140.0">S</text>
<rect rx="6.0" ry="6.0" x="212.0" y="114.0" width="56.0" height="52.0"/>
<text x="240.0" y="140.0">D</text>
<rect rx="6.0" ry="6.0" x="272.0" y="114.0" width="56.0" height="52.0"/>
<text x="300.0" y="140.0">F</text>
<rect rx="6.0" ry="6.0" x="332.0" y="114.0" width="56.0" height="52.0"/>
<text x="360.0" y="140.0">G</text>
<rect rx="6.0" ry="6.0" x="422.0" y="114.0" width="56.0" height="52.0"/>
<text x="450.0" y="140.0">H</text>
<rect rx="6.0" ry="6.0" x="482.0" y="114.0" width="56.0" height="52.0"/>
<text x="510.0" y="140.0">J</text>
<rect rx="6.0" ry="6.0" x="542.0" y="114.0" width="56.0" height="52.0"/>
<text x="570.0" y="140.0">K</text>
<rect rx="6.0" ry="6.0" x="602.0" y="114.0" width="56.0" height="52.0"/>
<text x="630.0" y="140.0">L</text>
<rect rx="6.0" ry="6.0" x="662.0" y="114.0" width="56.0" height="52.0"/>
<text x="690.0" y="140.0">;</text>
<rect rx="6.0" ry="6.0" x="722.0" y="114.0" width="56.0" height="52.0"/>
<text x="750.0" y="140.0">&#x27;</text>
<text x="750.0" y="159.0" class="small">RALT</text>
<rect rx="6.0" ry="6.0" x="32.0" y="170.0" width="56.0" height="52.0"/>
<text x="60.0" y="196.0">LSHFT</text>
<rect rx="6.0" ry="6.0" x="92.0" y="170.0" width="56.0" height="52.0"/>
<text x="120.0" y="196.0">Z</text>
<rect rx="6.0" ry="6.0" x="152.0" y="170.0" width="56.0" height="52.0"/>
<text x="180.0" y="196.0">X</text>
<rect rx="6.0" ry="6.0" x="212.0" y="170.0" width="56.0" height="52.0"/>
<text x="240.0" y="196.0">C</text>
<rect rx="6.0" ry="6.0" x="272.0" y="170.0" width="56.0" height="52.0"/>
<text x="300.0" y="196.0">V</text>
<rect rx="6.0" ry="6.0" x="332.0" y="170.0" width="56.0" height="52.0"/>
<text x="360.0" y="196.0">B</text>
<rect rx="6.0" ry="6.0" x="422.0" y="170.0" width="56.0" height="52.0"/>
<text x="450.0" y="196.0">N</text>
<rect rx="6.0" ry="6.0" x="482.0" y="170.0" width="56.0" height="52.0"/>
<text x="510.0" y="196.0">M</text>
<rect rx="6.0" ry="6.0" x="542.0" y="170.0" width="56.0" height="52.0"/>
<text x="570.0" y="196.0">,</text>
<rect rx="6.0" ry="6.0" x="602.0" y="170.0" width="56.0" height="52.0"/>
<text x="630.0" y="196.0">.</text>
<rect rx="6.0" ry="6.0" x="662.0" y="170.0" width="56.0" height="52.0"/>
<text x="690.0" y="196.0">/</text>
<rect rx="6.0" ry="6.0" x="722.0" y="170.0" width="56.0" height="52.0"/>
<text x="750.0" y="196.0">ESC</text>
<text x="750.0" y="215.0" class="small">RSHFT</text>
<rect rx="6.0" ry="6.0" x="212.0" y="226.0" width="56.0" height="52.0"/>
<text x="240.0" y="252.0">LGUI</text>
<rect rx="6.0" ry="6.0" x="272.0" y="226.0" width="56.0" height="52.0"/>
<text x="300.0" y="252.0">lower</text>
<rect rx="6.0" ry="6.0" x="332.0" y="226.0" width="56.0" height="52.0"/>
<text x="360.0" y="252.0">SPACE</text>
<rect rx="6.0" ry="6.0" x="422.0" y="226.0" width="56.0" height="52.0"/>
<text x="450.0" y="252.0">RET</text>
<rect rx="6.0" ry="6.0" x="482.0" y="226.0" width="56.0" height="52.0"/>
<text x="510.0" y="252.0">raise</text>
<rect rx="6.0" ry="6.0" x="542.0" y="226.0" width="56.0" height="52.0"/>
<text x="570.0" y="252.0">LALT</text>
<text x="30.0" y="308.0" class="label">lower:</text>
<rect rx="6.0" ry="6.0" x="32.0" y="338.0" width="56.0" height="52.0"/>
<text x="60.0" y="364.0">TAB</text>
<rect rx="6.0" ry="6.0" x="92.0" y="338.0" width="56.0" height="52.0"/>
<text x="120.0" y="364.0">1</text>
<rect rx="6.0" ry="6.0" x="152.0" y="338.0" width="56.0" height="52.0"/>
<text x="180.0" y="364.0">2</text>
<rect rx="6.0" ry="6.0" x="212.0" y="338.0" width="56.0" height="52.0"/>
<text x="240.0" y="364.0">3</text>
<rect rx="6.0" ry="6.0" x="272.0" y="338.0" width="56.0" height="52.0"/>
<text x="300.0" y="364.0">4</text>
<rect rx="6.0" ry="6.0" x="332.0" y="338.0" width="56.0" height="52.0"/>
<text x="360.0" y="364.0">5</text>
<rect rx="6.0" ry="6.0" x="422.0" y="338.0" width="56.0" height="52.0"/>
<text x="450.0" y="364.0">6</text>
<rect rx="6.0" ry="6.0" x="482.0" y="338.0" width="56.0" height="52.0"/>
<text x="510.0" y="364.0">7</text>
<rect rx="6.0" ry="6.0" x="542.0" y="338.0" width="56.0" height="52.0"/>
<text x="570.0" y="364.0">8</text>
<rect rx="6.0" ry="6.0" x="602.0" y="338.0" width="56.0" height="52.0"/>
<text x="630.0" y="364.0">9</text>
<rect rx="6.0" ry="6.0" x="662.0" y="338.0" width="56.0" height="52.0"/>
<text x="690.0" y="364.0">0</text>
<rect rx="6.0" ry="6.0" x="722.0" y="338.0" width="56.0" height="52.0"/>
<text x="750.0" y="364.0">&amp;bspdel</text>
<rect rx="6.0" ry="6.0" x="32.0" y="394.0" width="56.0" height="52.0"/>
<text x="60.0" y="420.0">LCTRL</text>
<rect rx="6.0" ry="6.0" x="92.0" y="394.0" width="56.0" height="52.0"/>
<rect rx="6.0" ry="6.0" x="152.0" y="394.0" width="56.0" height="52.0"/>
<rect rx="6.0" ry="6.0" x="212.0" y="394.0" width="56.0" height="52.0"/>
<rect rx="6.0" ry="6.0" x="272.0" y="394.0" width="56.0" height="52.0"/>
<rect rx="6.0" ry="6.0" x="332.0" y="394.0" width="56.0" height="52.0"/>
<rect rx="6.0" ry="6.0" x="422.0" y="394.0" width="56.0" height="52.0"/>
<rect rx="6.0" ry="6.0" x="482.0" y="394.0" width="56.0" height="52.0"/>
<text x="510.0" y="420.0">LEFT</text>
<rect rx="6.0" ry="6.0" x="542.0" y="394.0" width="56.0" height="52.0"/>
<text x="570.0" y="420.0">UP</text>
<rect rx="6.0" ry="6.0" x="602.0" y="394.0" width="56.0" height="52.0"/>
<text x="630.0" y="420.0">DOWN</text>
<rect rx="6.0" ry="6.0" x="662.0" y="394.0" width="56.0" height="52.0"/>
<text x="690.0" y="420.0">RIGHT</text>
<rect rx="6.0" ry="6.0" x="722.0" y="394.0" width="56.0" height="52.0"/>
<text x="750.0" y="420.0">&#x27;</text>
<text x="750.0" y="439.0" class="small">RALT</text>
<rect rx="6.0" ry="6.0" x="32.0" y="450.0" width="56.0" height="52.0"/>
<text x="60.0" y="476.0">LSHFT</text>
<rect rx="6.0" ry="6.0" x="92.0" y="450.0" width="56.0" height="52.0"/>
<rect rx="6.0" ry="6.0" x="152.0" y="450.0" width="56.0" height="52.0"/>
<rect rx="6.0" ry="6.0" x="212.0" y="450.0" width="56.0" height="52.0"/>
<rect rx="6.0" ry="6.0" x="272.0" y="450.0" width="56.0" height="52.0"/>
<rect rx="6.0" ry="6.0" x="332.0" y="450.0" width="56.0" height="52.0"/>
<rect rx="6.0" ry="6.0" x="422.0" y="450.0" width="56.0" height="52.0"/>
<text x="450.0" y="476.0">HOME</text>
<rect rx="6.0" ry="6.0" x="482.0" y="450.0" width="56.0" height="52.0"/>
<rect rx="6.0" ry="6.0" x="542.0" y="450.0" width="56.0" height="52.0"/>
<text x="570.0" y="476.0">
<tspan x="570.0" dy="-0.6em">PG</tspan><tspan x="570.0" dy="1.2em">UP</tspan></text>
<rect rx="6.0" ry="6.0" x="602.0" y="450.0" width="56.0" height="52.0"/>
<text x="630.0" y="476.0">
<tspan x="630.0" dy="-0.6em">PG</tspan><tspan x="630.0" dy="1.2em">DN</tspan></text>
<rect rx="6.0" ry="6.0" x="662.0" y="450.0" width="56.0" height="52.0"/>
<text x="690.0" y="476.0">END</text>
<rect rx="6.0" ry="6.0" x="722.0" y="450.0" width="56.0" height="52.0"/>
<text x="750.0" y="476.0">ESC</text>
<text x="750.0" y="495.0" class="small">RSHFT</text>
<rect rx="6.0" ry="6.0" x="212.0" y="506.0" width="56.0" height="52.0"/>
<text x="240.0" y="532.0">LGUI</text>
<rect rx="6.0" ry="6.0" x="272.0" y="506.0" width="56.0" height="52.0"/>
<rect rx="6.0" ry="6.0" x="332.0" y="506.0" width="56.0" height="52.0"/>
<text x="360.0" y="532.0">SPACE</text>
<rect rx="6.0" ry="6.0" x="422.0" y="506.0" width="56.0" height="52.0"/>
<text x="450.0" y="532.0">RET</text>
<rect rx="6.0" ry="6.0" x="482.0" y="506.0" width="56.0" height="52.0"/>
<text x="510.0" y="532.0">func</text>
<rect rx="6.0" ry="6.0" x="542.0" y="506.0" width="56.0" height="52.0"/>
<text x="570.0" y="532.0">LALT</text>
<text x="30.0" y="588.0" class="label">raise:</text>
<rect rx="6.0" ry="6.0" x="32.0" y="618.0" width="56.0" height="52.0"/>
<text x="60.0" y="644.0">TAB</text>
<rect rx="6.0" ry="6.0" x="92.0" y="618.0" width="56.0" height="52.0"/>
<text x="120.0" y="644.0">!</text>
<rect rx="6.0" ry="6.0" x="152.0" y="618.0" width="56.0" height="52.0"/>
<text x="180.0" y="644.0">@</text>
<rect rx="6.0" ry="6.0" x="212.0" y="618.0" width="56.0" height="52.0"/>
<text x="240.0" y="644.0">#</text>
<rect rx="6.0" ry="6.0" x="272.0" y="618.0" width="56.0" height="52.0"/>
<text x="300.0" y="644.0">$</text>
<rect rx="6.0" ry="6.0" x="332.0" y="618.0" width="56.0" height="52.0"/>
<text x="360.0" y="644.0">%</text>
<rect rx="6.0" ry="6.0" x="422.0" y="618.0" width="56.0" height="52.0"/>
<text x="450.0" y="644.0">^</text>
<rect rx="6.0" ry="6.0" x="482.0" y="618.0" width="56.0" height="52.0"/>
<text x="510.0" y="644.0">&amp;</text>
<rect rx="6.0" ry="6.0" x="542.0" y="618.0" width="56.0" height="52.0"/>
<text x="570.0" y="644.0">
<tspan x="570.0" dy="-0.6em">KP</tspan><tspan x="570.0" dy="1.2em">MULTIPLY</tspan></text>
<rect rx="6.0" ry="6.0" x="602.0" y="618.0" width="56.0" height="52.0"/>
<text x="630.0" y="644.0">(</text>
<rect rx="6.0" ry="6.0" x="662.0" y="618.0" width="56.0" height="52.0"/>
<text x="690.0" y="644.0">)</text>
<rect rx="6.0" ry="6.0" x="722.0" y="618.0" width="56.0" height="52.0"/>
<text x="750.0" y="644.0">&amp;bspdel</text>
<rect rx="6.0" ry="6.0" x="32.0" y="674.0" width="56.0" height="52.0"/>
<text x="60.0" y="700.0">LCTRL</text>
<rect rx="6.0" ry="6.0" x="92.0" y="674.0" width="56.0" height="52.0"/>
<rect rx="6.0" ry="6.0" x="152.0" y="674.0" width="56.0" height="52.0"/>
<rect rx="6.0" ry="6.0" x="212.0" y="674.0" width="56.0" height="52.0"/>
<rect rx="6.0" ry="6.0" x="272.0" y="674.0" width="56.0" height="52.0"/>
<rect rx="6.0" ry="6.0" x="332.0" y="674.0" width="56.0" height="52.0"/>
<rect rx="6.0" ry="6.0" x="422.0" y="674.0" width="56.0" height="52.0"/>
<text x="450.0" y="700.0">-</text>
<rect rx="6.0" ry="6.0" x="482.0" y="674.0" width="56.0" height="52.0"/>
<text x="510.0" y="700.0">=</text>
<rect rx="6.0" ry="6.0" x="542.0" y="674.0" width="56.0" height="52.0"/>
<text x="570.0" y="700.0">[</text>
<rect rx="6.0" ry="6.0" x="602.0" y="674.0" width="56.0" height="52.0"/>
<text x="630.0" y="700.0">]</text>
<rect rx="6.0" ry="6.0" x="662.0" y="674.0" width="56.0" height="52.0"/>
<text x="690.0" y="700.0">\</text>
<rect rx="6.0" ry="6.0" x="722.0" y="674.0" width="56.0" height="52.0"/>
<text x="750.0" y="700.0">`</text>
<rect rx="6.0" ry="6.0" x="32.0" y="730.0" width="56.0" height="52.0"/>
<text x="60.0" y="756.0">LSHFT</text>
<rect rx="6.0" ry="6.0" x="92.0" y="730.0" width="56.0" height="52.0"/>
<rect rx="6.0" ry="6.0" x="152.0" y="730.0" width="56.0" height="52.0"/>
<rect rx="6.0" ry="6.0" x="212.0" y="730.0" width="56.0" height="52.0"/>
<rect rx="6.0" ry="6.0" x="272.0" y="730.0" width="56.0" height="52.0"/>
<rect rx="6.0" ry="6.0" x="332.0" y="730.0" width="56.0" height="52.0"/>
<rect rx="6.0" ry="6.0" x="422.0" y="730.0" width="56.0" height="52.0"/>
<text x="450.0" y="756.0">_</text>
<rect rx="6.0" ry="6.0" x="482.0" y="730.0" width="56.0" height="52.0"/>
<text x="510.0" y="756.0">+</text>
<rect rx="6.0" ry="6.0" x="542.0" y="730.0" width="56.0" height="52.0"/>
<text x="570.0" y="756.0">{</text>
<rect rx="6.0" ry="6.0" x="602.0" y="730.0" width="56.0" height="52.0"/>
<text x="630.0" y="756.0">}</text>
<rect rx="6.0" ry="6.0" x="662.0" y="730.0" width="56.0" height="52.0"/>
<text x="690.0" y="756.0">|</text>
<rect rx="6.0" ry="6.0" x="722.0" y="730.0" width="56.0" height="52.0"/>
<text x="750.0" y="756.0">~</text>
<rect rx="6.0" ry="6.0" x="212.0" y="786.0" width="56.0" height="52.0"/>
<text x="240.0" y="812.0">LGUI</text>
<rect rx="6.0" ry="6.0" x="272.0" y="786.0" width="56.0" height="52.0"/>
<text x="300.0" y="812.0">func</text>
<rect rx="6.0" ry="6.0" x="332.0" y="786.0" width="56.0" height="52.0"/>
<text x="360.0" y="812.0">SPACE</text>
<rect rx="6.0" ry="6.0" x="422.0" y="786.0" width="56.0" height="52.0"/>
<text x="450.0" y="812.0">RET</text>
<rect rx="6.0" ry="6.0" x="482.0" y="786.0" width="56.0" height="52.0"/>
<rect rx="6.0" ry="6.0" x="542.0" y="786.0" width="56.0" height="52.0"/>
<text x="570.0" y="812.0">LALT</text>
<text x="30.0" y="868.0" class="label">func:</text>
<rect rx="6.0" ry="6.0" x="32.0" y="898.0" width="56.0" height="52.0"/>
<text x="60.0" y="924.0">TAB</text>
<rect rx="6.0" ry="6.0" x="92.0" y="898.0" width="56.0" height="52.0"/>
<text x="120.0" y="924.0">F1</text>
<rect rx="6.0" ry="6.0" x="152.0" y="898.0" width="56.0" height="52.0"/>
<text x="180.0" y="924.0">F2</text>
<rect rx="6.0" ry="6.0" x="212.0" y="898.0" width="56.0" height="52.0"/>
<text x="240.0" y="924.0">F3</text>
<rect rx="6.0" ry="6.0" x="272.0" y="898.0" width="56.0" height="52.0"/>
<text x="300.0" y="924.0">F4</text>
<rect rx="6.0" ry="6.0" x="332.0" y="898.0" width="56.0" height="52.0"/>
<text x="360.0" y="924.0">F5</text>
<rect rx="6.0" ry="6.0" x="422.0" y="898.0" width="56.0" height="52.0"/>
<text x="450.0" y="924.0">F6</text>
<rect rx="6.0" ry="6.0" x="482.0" y="898.0" width="56.0" height="52.0"/>
<text x="510.0" y="924.0">F7</text>
<rect rx="6.0" ry="6.0" x="542.0" y="898.0" width="56.0" height="52.0"/>
<text x="570.0" y="924.0">F8</text>
<rect rx="6.0" ry="6.0" x="602.0" y="898.0" width="56.0" height="52.0"/>
<text x="630.0" y="924.0">F9</text>
<rect rx="6.0" ry="6.0" x="662.0" y="898.0" width="56.0" height="52.0"/>
<text x="690.0" y="924.0">F10</text>
<rect rx="6.0" ry="6.0" x="722.0" y="898.0" width="56.0" height="52.0"/>
<text x="750.0" y="924.0">&amp;bspdel</text>
<rect rx="6.0" ry="6.0" x="32.0" y="954.0" width="56.0" height="52.0"/>
<text x="60.0" y="980.0">LCTRL</text>
<rect rx="6.0" ry="6.0" x="92.0" y="954.0" width="56.0" height="52.0"/>
<text x="120.0" y="980.0">F11</text>
<rect rx="6.0" ry="6.0" x="152.0" y="954.0" width="56.0" height="52.0"/>
<text x="180.0" y="980.0">F12</text>
<rect rx="6.0" ry="6.0" x="212.0" y="954.0" width="56.0" height="52.0"/>
<text x="240.0" y="980.0">F13</text>
<rect rx="6.0" ry="6.0" x="272.0" y="954.0" width="56.0" height="52.0"/>
<text x="300.0" y="980.0">F14</text>
<rect rx="6.0" ry="6.0" x="332.0" y="954.0" width="56.0" height="52.0"/>
<text x="360.0" y="980.0">F15</text>
<rect rx="6.0" ry="6.0" x="422.0" y="954.0" width="56.0" height="52.0"/>
<text x="450.0" y="980.0">
<tspan x="450.0" dy="-0.6em">BRI</tspan><tspan x="450.0" dy="1.2em">DN</tspan></text>
<rect rx="6.0" ry="6.0" x="482.0" y="954.0" width="56.0" height="52.0"/>
<text x="510.0" y="980.0">
<tspan x="510.0" dy="-0.6em">BRI</tspan><tspan x="510.0" dy="1.2em">UP</tspan></text>
<rect rx="6.0" ry="6.0" x="542.0" y="954.0" width="56.0" height="52.0"/>
<text x="570.0" y="980.0">
<tspan x="570.0" dy="-0.6em">VOL</tspan><tspan x="570.0" dy="1.2em">DN</tspan></text>
<rect rx="6.0" ry="6.0" x="602.0" y="954.0" width="56.0" height="52.0"/>
<text x="630.0" y="980.0">
<tspan x="630.0" dy="-0.6em">VOL</tspan><tspan x="630.0" dy="1.2em">UP</tspan></text>
<rect rx="6.0" ry="6.0" x="662.0" y="954.0" width="56.0" height="52.0"/>
<text x="690.0" y="980.0">PP</text>
<rect rx="6.0" ry="6.0" x="722.0" y="954.0" width="56.0" height="52.0"/>
<text x="750.0" y="980.0">NEXT</text>
<rect rx="6.0" ry="6.0" x="32.0" y="1010.0" width="56.0" height="52.0"/>
<text x="60.0" y="1036.0">LSHFT</text>
<rect rx="6.0" ry="6.0" x="92.0" y="1010.0" width="56.0" height="52.0"/>
<rect rx="6.0" ry="6.0" x="152.0" y="1010.0" width="56.0" height="52.0"/>
<rect rx="6.0" ry="6.0" x="212.0" y="1010.0" width="56.0" height="52.0"/>
<rect rx="6.0" ry="6.0" x="272.0" y="1010.0" width="56.0" height="52.0"/>
<text x="300.0" y="1036.0">&amp;email</text>
<rect rx="6.0" ry="6.0" x="332.0" y="1010.0" width="56.0" height="52.0"/>
<rect rx="6.0" ry="6.0" x="422.0" y="1010.0" width="56.0" height="52.0"/>
<rect rx="6.0" ry="6.0" x="482.0" y="1010.0" width="56.0" height="52.0"/>
<rect rx="6.0" ry="6.0" x="542.0" y="1010.0" width="56.0" height="52.0"/>
<text x="570.0" y="1036.0">
<tspan x="570.0" dy="-0.6em">BT</tspan><tspan x="570.0" dy="1.2em">0</tspan></text>
<rect rx="6.0" ry="6.0" x="602.0" y="1010.0" width="56.0" height="52.0"/>
<text x="630.0" y="1036.0">
<tspan x="630.0" dy="-0.6em">BT</tspan><tspan x="630.0" dy="1.2em">1</tspan></text>
<rect rx="6.0" ry="6.0" x="662.0" y="1010.0" width="56.0" height="52.0"/>
<text x="690.0" y="1036.0">
<tspan x="690.0" dy="-0.6em">BT</tspan><tspan x="690.0" dy="1.2em">2</tspan></text>
<rect rx="6.0" ry="6.0" x="722.0" y="1010.0" width="56.0" height="52.0"/>
<text x="750.0" y="1036.0">
<tspan x="750.0" dy="-0.6em">BT</tspan><tspan x="750.0" dy="1.2em">CLR</tspan></text>
<rect rx="6.0" ry="6.0" x="212.0" y="1066.0" width="56.0" height="52.0"/>
<text x="240.0" y="1092.0">LGUI</text>
<rect rx="6.0" ry="6.0" x="272.0" y="1066.0" width="56.0" height="52.0"/>
<rect rx="6.0" ry="6.0" x="332.0" y="1066.0" width="56.0" height="52.0"/>
<text x="360.0" y="1092.0">SPACE</text>
<rect rx="6.0" ry="6.0" x="422.0" y="1066.0" width="56.0" height="52.0"/>
<text x="450.0" y="1092.0">RET</text>
<rect rx="6.0" ry="6.0" x="482.0" y="1066.0" width="56.0" height="52.0"/>
<rect rx="6.0" ry="6.0" x="542.0" y="1066.0" width="56.0" height="52.0"/>
<text x="570.0" y="1092.0">LALT</text>
</svg>
